<?xml version="1.0" encoding="UTF-8"?><svg xmlns="http://www.w3.org/2000/svg" viewBox="0 0 474.14 474.14"><g id="background"><rect width="474.14" height="474.14" rx="101.72" ry="101.72" fill="#0af"/></g><g id="plain"><rect x="146.19" y="142.45" width="309.54" height="20.11" rx="10.06" ry="10.06" transform="translate(-36.35 144.76) rotate(-25.56)" fill="#fff"/><rect x="257.7" y="138.55" width="203.64" height="20.11" rx="10.06" ry="10.06" transform="translate(-14.16 256.78) rotate(-38.6)" fill="#fff"/><rect x="222.18" y="227.42" width="327.97" height="20.11" rx="10.06" ry="10.06" transform="translate(45.36 536.42) rotate(-72.85)" fill="#fff"/></g><g id="m-logo"><path d="m191.2,393.9h0c-5.1-.09-9.63-3.29-11.45-8.05-13.55-35.43-29.77-68.37-29.77-68.37,0,0-72.99,53.13-101.11,73.74-6.44,4.72-15.9,2.66-19.12-4.64-1.15-2.61-1.32-5.4.11-7.8l89.99-151.53c5.12-8.62,17.91-7.55,21.54,1.79l58.95,151.8c2.47,6.37-2.3,13.2-9.13,13.08Z" fill="#030017"/><path d="m262.92,229.39l87.43,148.82c4.28,7.29-.91,16.49-9.37,16.59h0c-4.06.05-7.85-2.04-9.98-5.49l-49.31-79.96-84.51,83.43c-3.51,3.46-9.18,3.65-12.76.26-3.68-3.48-5.24-9.04-3.07-14.29l61.23-147.94c3.6-8.69,15.58-9.52,20.34-1.41Z" fill="#030017"/></g></svg>